# xmcd
#
# Track frame offsets:
#	150
#	8337
#	20600
#	32321
#	44256
#	57480
#	69107
#	81441
#	93918
#	103264
#	113733
#	124740
#	137504
#	146306
#	155754
#	166742
#	179327
#	192361
#	207572
#	218475
#	228366
#	241061
#	254196
#	266500
#
# Disc length: 3703 seconds
#
# Revision: 1
# Processed by: cddbd v1.5.2PL0 Copyright (c) Steve Scherf et al.
# Submitted via: audiograbber 1.83.01
#
DISCID=440e7518
DTITLE=The Singing Kettles - The Way It Used to Be
DYEAR=1982
DGENRE=Country
TTITLE0=Frauline
TTITLE1=Boquet of Roses
TTITLE2=Call Of The Bellbird
TTITLE3=Please Mr Santa Try
TTITLE4=Father Along
TTITLE5=Courtin in the Rain
TTITLE6=Rock All the babies to Sleep
TTITLE7=I Cant Help It
TTITLE8=All for the love of a Girl
TTITLE9=Storm Within My Heart
TTITLE10=Broken Dreams
TTITLE11=Hands Your Holding Now
TTITLE12=Wolverton Mt
TTITLE13=Dreaming On The Sliprail
TTITLE14=Missing In Action
TTITLE15=I Love You A 1000 ways
TTITLE16=I Still miss Someone
TTITLE17=Wild Side Of Life
TTITLE18=Game aas Ned Kelly
TTITLE19=Tell Her Lies And Feed Her Candy
TTITLE20=Lovers Lament
TTITLE21=North To Alaska
TTITLE22=Almost Persuaded
TTITLE23=I Thought I Heard You Calling My Name
EXTD=The Way It Use To Be Vol1 and 2\nThe Hadley Masters
EXTT0=
EXTT1=
EXTT2=
EXTT3=
EXTT4=
EXTT5=
EXTT6=
EXTT7=
EXTT8=
EXTT9=
EXTT10=
EXTT11=
EXTT12=
EXTT13=
EXTT14=
EXTT15=
EXTT16=
EXTT17=
EXTT18=
EXTT19=
EXTT20=
EXTT21=
EXTT22=
EXTT23=
PLAYORDER=
